<svg width="1000" height="700" viewBox="0 0 1000 700" xmlns="http://www.w3.org/2000/svg">

  <style>
    .header {
      font-family: "Montserrat", sans-serif;
      font-size: 18.662px;
      font-weight: 700;
      fill: rgb(255,255,255);
      dominant-baseline: middle;
    }
    .cell {
      font-family: "Montserrat", sans-serif;
      font-size: 18.662px;
      font-weight: 400;
      fill: rgb(255,255,255);
      dominant-baseline: middle;
    }
  </style>

<line x1="50" y1="40" x2="950" y2="40" stroke="rgb(198,62,48)" stroke-width="5.332"/>
<text x="55" y="53.9965" class="header" text-anchor="start">Col1</text>
<text x="235.0" y="53.9965" class="header" text-anchor="start">Col2</text>
<text x="415.0" y="53.9965" class="header" text-anchor="start">Col3</text>
<text x="595.0" y="53.9965" class="header" text-anchor="start">Col4</text>
<text x="775.0" y="53.9965" class="header" text-anchor="start">Col5</text>
<line x1="50" y1="67.993" x2="950" y2="67.993" stroke="rgb(155,184,193)" stroke-width="1.333"/>
<line x1="50" y1="98.19369999999999" x2="950" y2="98.19369999999999" stroke="rgb(155,184,193)" stroke-width="1.333"/>
<line x1="50" y1="128.3944" x2="950" y2="128.3944" stroke="rgb(155,184,193)" stroke-width="1.333"/>
<line x1="50" y1="158.5951" x2="950" y2="158.5951" stroke="rgb(155,184,193)" stroke-width="1.333"/>
<line x1="50" y1="188.79579999999999" x2="950" y2="188.79579999999999" stroke="rgb(155,184,193)" stroke-width="1.333"/>
<line x1="50" y1="218.9965" x2="950" y2="218.9965" stroke="rgb(155,184,193)" stroke-width="1.333"/>
<line x1="50" y1="249.1972" x2="950" y2="249.1972" stroke="rgb(155,184,193)" stroke-width="1.333"/>
<line x1="50" y1="279.3979" x2="950" y2="279.3979" stroke="rgb(155,184,193)" stroke-width="1.333"/>
<line x1="50" y1="309.59860000000003" x2="950" y2="309.59860000000003" stroke="rgb(155,184,193)" stroke-width="1.333"/>
<line x1="50" y1="339.7993" x2="950" y2="339.7993" stroke="rgb(155,184,193)" stroke-width="1.333"/>
<line x1="50" y1="370.0" x2="950" y2="370.0" stroke="rgb(155,184,193)" stroke-width="1.333"/>
<line x1="50" y1="400.2007" x2="950" y2="400.2007" stroke="rgb(155,184,193)" stroke-width="1.333"/>
<line x1="50" y1="430.4014" x2="950" y2="430.4014" stroke="rgb(155,184,193)" stroke-width="1.333"/>
<line x1="50" y1="460.6021" x2="950" y2="460.6021" stroke="rgb(155,184,193)" stroke-width="1.333"/>
<line x1="50" y1="490.8028" x2="950" y2="490.8028" stroke="rgb(155,184,193)" stroke-width="1.333"/>
<line x1="50" y1="521.0035" x2="950" y2="521.0035" stroke="rgb(155,184,193)" stroke-width="1.333"/>
<line x1="50" y1="551.2042" x2="950" y2="551.2042" stroke="rgb(155,184,193)" stroke-width="1.333"/>
<line x1="50" y1="581.4049" x2="950" y2="581.4049" stroke="rgb(155,184,193)" stroke-width="1.333"/>
<line x1="50" y1="611.6056000000001" x2="950" y2="611.6056000000001" stroke="rgb(155,184,193)" stroke-width="1.333"/>
<line x1="50" y1="641.8063" x2="950" y2="641.8063" stroke="rgb(155,184,193)" stroke-width="1.333"/>
<line x1="50" y1="672.0070000000001" x2="950" y2="672.0070000000001" stroke="rgb(198,62,48)" stroke-width="1.333"/>
<text x="55" y="83.09335" class="cell" text-anchor="start">AABA</text>
<text x="235.0" y="83.09335" class="cell" text-anchor="start">AEDV</text>
<text x="415.0" y="83.09335" class="cell" text-anchor="start">AKOZ</text>
<text x="595.0" y="83.09335" class="cell" text-anchor="start">BDIA</text>
<text x="775.0" y="83.09335" class="cell" text-anchor="start">BHLT</text>
<text x="55" y="113.29405" class="cell" text-anchor="start">AABD</text>
<text x="235.0" y="113.29405" class="cell" text-anchor="start">AETR</text>
<text x="415.0" y="113.29405" class="cell" text-anchor="start">AKRY</text>
<text x="595.0" y="113.29405" class="cell" text-anchor="start">BDLZ</text>
<text x="775.0" y="113.29405" class="cell" text-anchor="start">BIFV</text>
<text x="55" y="143.49475" class="cell" text-anchor="start">AAQZ</text>
<text x="235.0" y="143.49475" class="cell" text-anchor="start">AFDA</text>
<text x="415.0" y="143.49475" class="cell" text-anchor="start">AKTA</text>
<text x="595.0" y="143.49475" class="cell" text-anchor="start">BDVN</text>
<text x="775.0" y="143.49475" class="cell" text-anchor="start">BILG</text>
<text x="55" y="173.69545" class="cell" text-anchor="start">AAWL</text>
<text x="235.0" y="173.69545" class="cell" text-anchor="start">AFOJ</text>
<text x="415.0" y="173.69545" class="cell" text-anchor="start">AKVS</text>
<text x="595.0" y="173.69545" class="cell" text-anchor="start">BELV</text>
<text x="775.0" y="173.69545" class="cell" text-anchor="start">BITI</text>
<text x="55" y="203.89615" class="cell" text-anchor="start">AAXX</text>
<text x="235.0" y="203.89615" class="cell" text-anchor="start">AFYE</text>
<text x="415.0" y="203.89615" class="cell" text-anchor="start">AKXI</text>
<text x="595.0" y="203.89615" class="cell" text-anchor="start">BEMP</text>
<text x="775.0" y="203.89615" class="cell" text-anchor="start">BIXR</text>
<text x="55" y="234.09685" class="cell" text-anchor="start">ABEW</text>
<text x="235.0" y="234.09685" class="cell" text-anchor="start">AGFZ</text>
<text x="415.0" y="234.09685" class="cell" text-anchor="start">AKZO</text>
<text x="595.0" y="234.09685" class="cell" text-anchor="start">BENJ</text>
<text x="775.0" y="234.09685" class="cell" text-anchor="start">BJAP</text>
<text x="55" y="264.29755" class="cell" text-anchor="start">ABTV</text>
<text x="235.0" y="264.29755" class="cell" text-anchor="start">AGYB</text>
<text x="415.0" y="264.29755" class="cell" text-anchor="start">ALCP</text>
<text x="595.0" y="264.29755" class="cell" text-anchor="start">BFGE</text>
<text x="775.0" y="264.29755" class="cell" text-anchor="start">BJXM</text>
<text x="55" y="294.49825" class="cell" text-anchor="start">ABVW</text>
<text x="235.0" y="294.49825" class="cell" text-anchor="start">AHBP</text>
<text x="415.0" y="294.49825" class="cell" text-anchor="start">ALFN</text>
<text x="595.0" y="294.49825" class="cell" text-anchor="start">BFLE</text>
<text x="775.0" y="294.49825" class="cell" text-anchor="start">BJYD</text>
<text x="55" y="324.69895" class="cell" text-anchor="start">ACBU</text>
<text x="235.0" y="324.69895" class="cell" text-anchor="start">AHGG</text>
<text x="415.0" y="324.69895" class="cell" text-anchor="start">ALTO</text>
<text x="595.0" y="324.69895" class="cell" text-anchor="start">BFMZ</text>
<text x="775.0" y="324.69895" class="cell" text-anchor="start">BKDV</text>
<text x="55" y="354.89965" class="cell" text-anchor="start">ACGN</text>
<text x="235.0" y="354.89965" class="cell" text-anchor="start">AHJQ</text>
<text x="415.0" y="354.89965" class="cell" text-anchor="start">AMGP</text>
<text x="595.0" y="354.89965" class="cell" text-anchor="start">BFNI</text>
<text x="775.0" y="354.89965" class="cell" text-anchor="start">BLAJ</text>
<text x="55" y="385.10035" class="cell" text-anchor="start">ACGT</text>
<text x="235.0" y="385.10035" class="cell" text-anchor="start">AHOR</text>
<text x="415.0" y="385.10035" class="cell" text-anchor="start">BAEF</text>
<text x="595.0" y="385.10035" class="cell" text-anchor="start">BFRH</text>
<text x="775.0" y="385.10035" class="cell" text-anchor="start">BLIW</text>
<text x="55" y="415.30105000000003" class="cell" text-anchor="start">ACOP</text>
<text x="235.0" y="415.30105000000003" class="cell" text-anchor="start">AHSK</text>
<text x="415.0" y="415.30105000000003" class="cell" text-anchor="start">BAGF</text>
<text x="595.0" y="415.30105000000003" class="cell" text-anchor="start">BFTR</text>
<text x="775.0" y="415.30105000000003" class="cell" text-anchor="start">BLKR</text>
<text x="55" y="445.50175" class="cell" text-anchor="start">ACPL</text>
<text x="235.0" y="445.50175" class="cell" text-anchor="start">AIAD</text>
<text x="415.0" y="445.50175" class="cell" text-anchor="start">BAJW</text>
<text x="595.0" y="445.50175" class="cell" text-anchor="start">BGAZ</text>
<text x="775.0" y="445.50175" class="cell" text-anchor="start">BMCA</text>
<text x="55" y="475.70245" class="cell" text-anchor="start">ACQM</text>
<text x="235.0" y="475.70245" class="cell" text-anchor="start">AIGP</text>
<text x="415.0" y="475.70245" class="cell" text-anchor="start">BAKQ</text>
<text x="595.0" y="475.70245" class="cell" text-anchor="start">BGLU</text>
<text x="775.0" y="475.70245" class="cell" text-anchor="start">BMIM</text>
<text x="55" y="505.90315000000004" class="cell" text-anchor="start">ADAX</text>
<text x="235.0" y="505.90315000000004" class="cell" text-anchor="start">AIYO</text>
<text x="415.0" y="505.90315000000004" class="cell" text-anchor="start">BAYR</text>
<text x="595.0" y="505.90315000000004" class="cell" text-anchor="start">BGQL</text>
<text x="775.0" y="505.90315000000004" class="cell" text-anchor="start">BMYK</text>
<text x="55" y="536.10385" class="cell" text-anchor="start">ADPQ</text>
<text x="235.0" y="536.10385" class="cell" text-anchor="start">AJBH</text>
<text x="415.0" y="536.10385" class="cell" text-anchor="start">BBOF</text>
<text x="595.0" y="536.10385" class="cell" text-anchor="start">BGUB</text>
<text x="775.0" y="536.10385" class="cell" text-anchor="start">BNDJ</text>
<text x="55" y="566.3045500000001" class="cell" text-anchor="start">ADSV</text>
<text x="235.0" y="566.3045500000001" class="cell" text-anchor="start">AJGL</text>
<text x="415.0" y="566.3045500000001" class="cell" text-anchor="start">BCBX</text>
<text x="595.0" y="566.3045500000001" class="cell" text-anchor="start">BGVO</text>
<text x="775.0" y="566.3045500000001" class="cell" text-anchor="start">BNIT</text>
<text x="55" y="596.5052499999999" class="cell" text-anchor="start">ADXK</text>
<text x="235.0" y="596.5052499999999" class="cell" text-anchor="start">AKEK</text>
<text x="415.0" y="596.5052499999999" class="cell" text-anchor="start">BCSF</text>
<text x="595.0" y="596.5052499999999" class="cell" text-anchor="start">BGXT</text>
<text x="775.0" y="596.5052499999999" class="cell" text-anchor="start">BNLP</text>
<text x="55" y="626.70595" class="cell" text-anchor="start">ADZI</text>
<text x="235.0" y="626.70595" class="cell" text-anchor="start">AKIY</text>
<text x="415.0" y="626.70595" class="cell" text-anchor="start">BCYD</text>
<text x="595.0" y="626.70595" class="cell" text-anchor="start">BGZM</text>
<text x="775.0" y="626.70595" class="cell" text-anchor="start">BNMT</text>
<text x="55" y="656.9066500000001" class="cell" text-anchor="start">AEAP</text>
<text x="235.0" y="656.9066500000001" class="cell" text-anchor="start">AKMW</text>
<text x="415.0" y="656.9066500000001" class="cell" text-anchor="start">BDAC</text>
<text x="595.0" y="656.9066500000001" class="cell" text-anchor="start">BHDA</text>
<text x="775.0" y="656.9066500000001" class="cell" text-anchor="start">BNNQ</text>
</svg>